# Blender v2.76 (sub 0) OBJ File: ''
# www.blender.org
mtllib navmesh.mtl
o Cube.001
v -3.780844 0.093605 -2.651790
v -3.780844 2.093605 -2.651790
v -3.780844 0.093605 -4.651790
v -3.780844 2.093605 -4.651790
v -0.180844 0.093605 -2.651790
v -0.180844 2.093605 -2.651790
v -0.180844 0.093605 -4.651790
v -0.180844 2.093605 -4.651790
vn -1.000000 0.000000 0.000000
vn 0.000000 0.000000 -1.000000
vn 1.000000 0.000000 0.000000
vn 0.000000 0.000000 1.000000
vn 0.000000 -1.000000 0.000000
vn 0.000000 1.000000 0.000000
usemtl None
s off
f 2/1/1 4/2/1 3/2/1 1/1/1
f 4/3/2 8/5/2 7/4/2 3/1/2
f 8/4/3 6/5/3 5/4/3 7/6/3
f 6/5/4 2/3/4 1/3/4 5/4/4
f 1/3/5 3/4/5 7/6/5 5/5/5
f 6/6/6 8/7/6 4/5/6 2/4/6
o Cube
v 4.100000 -0.100000 -6.000000
v 4.100000 -0.100000 6.000000
v -4.100000 -0.100000 5.999999
v -4.099998 -0.100000 -6.000002
v 4.100002 0.100000 -5.999997
v 4.099997 0.100000 6.000004
v -4.100001 0.100000 5.999998
v -4.099999 0.100000 -6.000000
vn 0.000000 -1.000000 -0.000000
vn 0.000000 1.000000 -0.000000
vn 1.000000 0.000000 0.000000
vn -0.000000 -0.000000 1.000000
vn -1.000000 -0.000000 -0.000000
vn 0.000000 0.000000 -1.000000
usemtl Material
s off
f 9/8/7 10/8/7 11/9/7 12/11/7
f 13/9/8 16/13/8 15/6/8 14/10/8
f 9/9/9 13/10/9 14/12/9 10/9/9
f 10/10/10 14/12/10 15/13/10 11/10/10
f 11/11/11 15/13/11 16/14/11 12/11/11
f 13/12/12 9/10/12 12/12/12 16/14/12
